STARTFONT 2.1
FONT -FontForge-Impact-Book-R-Normal--30-300-72-72-P-156-ISO10646-1
SIZE 30 72 72
FONTBOUNDINGBOX 40 46 -3 -10
COMMENT "Generated by fontforge, http://fontforge.sourceforge.net"
COMMENT "(c) 2006 The Monotype Corporation. All Rights Reserved."
STARTPROPERTIES 39
FOUNDRY "FontForge"
FAMILY_NAME "Impact"
WEIGHT_NAME "Book"
SLANT "R"
SETWIDTH_NAME "Normal"
ADD_STYLE_NAME ""
PIXEL_SIZE 30
POINT_SIZE 300
RESOLUTION_X 72
RESOLUTION_Y 72
SPACING "P"
AVERAGE_WIDTH 156
CHARSET_REGISTRY "ISO10646"
CHARSET_ENCODING "1"
FONTNAME_REGISTRY ""
CHARSET_COLLECTIONS "ASCII ISOLatin1Encoding ISO8859-2 ISO8859-5 ISO8859-7 ISO8859-9 ISO8859-4 ISO10646-1"
FONT_NAME "Impact"
FACE_NAME "Impact"
COPYRIGHT "(c) 2006 The Monotype Corporation. All Rights Reserved."
FONT_VERSION "5.00x"
FONT_ASCENT 24
FONT_DESCENT 6
UNDERLINE_POSITION -4
UNDERLINE_THICKNESS 2
X_HEIGHT 18
CAP_HEIGHT 23
RAW_ASCENT 799
RAW_DESCENT 200
NORM_SPACE 5
RELATIVE_WEIGHT 40
RELATIVE_SETWIDTH 30
SUPERSCRIPT_X 0
SUPERSCRIPT_Y 11
SUPERSCRIPT_SIZE 15
SUBSCRIPT_X 0
SUBSCRIPT_Y 0
SUBSCRIPT_SIZE 15
AVG_LOWERCASE_WIDTH 148
AVG_UPPERCASE_WIDTH 156
ENDPROPERTIES
CHARS 669
STARTCHAR space
ENCODING 32
SWIDTH 176 0
DWIDTH 5 0
BBX 1 1 0 0
BITMAP
00
ENDCHAR
STARTCHAR exclam
ENCODING 33
SWIDTH 270 0
DWIDTH 8 0
BBX 7 24 1 0
BITMAP
FE
FE
FE
FE
FE
FE
FE
FE
FE
7C
7C
7C
7C
7C
7C
7C
7C
7C
00
7C
7C
7C
7C
7C
ENDCHAR
STARTCHAR quotedbl
ENCODING 34
SWIDTH 369 0
DWIDTH 11 0
BBX 9 7 1 17
BITMAP
F780
F780
F780
F780
F780
6300
6300
ENDCHAR
STARTCHAR numbersign
ENCODING 35
SWIDTH 626 0
DWIDTH 19 0
BBX 17 21 1 0
BITMAP
070700
070700
0F0F00
0E0E00
0E0E00
FFFF80
FFFF80
FFFF80
1C1C00
1C1C00
1C1C00
1C1C00
FFFF80
FFFF80
FFFF80
383800
383800
383800
707000
707000
707000
ENDCHAR
STARTCHAR dollar
ENCODING 36
SWIDTH 547 0
DWIDTH 16 0
BBX 12 28 2 -2
BITMAP
0700
0700
1F80
3FC0
7FE0
FFE0
FBE0
FBE0
FBE0
F800
FC00
7F00
7F80
3FC0
1FE0
07E0
03F0
01F0
F9F0
F9F0
F9F0
F9F0
FFF0
7FE0
3FE0
1F80
0700
0700
ENDCHAR
STARTCHAR percent
ENCODING 37
SWIDTH 692 0
DWIDTH 21 0
BBX 19 24 1 0
BITMAP
3E0E00
7F0C00
F78C00
F79C00
F79800
F79800
F7B000
F7B000
F7B000
F7E000
F7E000
7F6F80
3EDFC0
00FDE0
00FDE0
01BDE0
01BDE0
01BDE0
033DE0
033DE0
073DE0
063DE0
061FC0
0E0F80
ENDCHAR
STARTCHAR ampersand
ENCODING 38
SWIDTH 576 0
DWIDTH 17 0
BBX 16 19 1 0
BITMAP
0FC0
3FF0
3FF0
7CF8
7CF8
7CF8
7CF8
3FF0
1FE0
3FF0
7FF1
FFFF
FBFF
F9FF
F9FE
FFFE
7FFE
7FFF
1FBF
ENDCHAR
STARTCHAR quotesingle
ENCODING 39
SWIDTH 185 0
DWIDTH 6 0
BBX 4 7 1 17
BITMAP
F0
F0
F0
F0
F0
60
60
ENDCHAR
STARTCHAR parenleft
ENCODING 40
SWIDTH 313 0
DWIDTH 9 0
BBX 7 24 1 0
BITMAP
3E
7E
FE
F8
F8
F8
F8
F8
F8
F8
F8
F8
F8
F8
F8
F8
F8
F8
F8
F8
F8
FE
7E
3E
ENDCHAR
STARTCHAR parenright
ENCODING 41
SWIDTH 313 0
DWIDTH 9 0
BBX 7 24 1 0
BITMAP
F8
FC
FE
3E
3E
3E
3E
3E
3E
3E
3E
3E
3E
3E
3E
3E
3E
3E
3E
3E
3E
FE
FC
F8
ENDCHAR
STARTCHAR asterisk
ENCODING 42
SWIDTH 280 0
DWIDTH 8 0
BBX 8 7 0 17
BITMAP
18
18
FF
7E
3C
7E
24
ENDCHAR
STARTCHAR plus
ENCODING 43
SWIDTH 533 0
DWIDTH 16 0
BBX 14 14 1 5
BITMAP
0780
0780
0780
0780
0780
FFFC
FFFC
FFFC
FFFC
0780
0780
0780
0780
0780
ENDCHAR
STARTCHAR comma
ENCODING 44
SWIDTH 167 0
DWIDTH 5 0
BBX 4 8 1 -3
BITMAP
F0
F0
F0
F0
F0
60
E0
80
ENDCHAR
STARTCHAR hyphen
ENCODING 45
SWIDTH 294 0
DWIDTH 9 0
BBX 8 4 1 8
BITMAP
FF
FF
FF
FF
ENDCHAR
STARTCHAR period
ENCODING 46
SWIDTH 184 0
DWIDTH 6 0
BBX 4 5 1 0
BITMAP
F0
F0
F0
F0
F0
ENDCHAR
STARTCHAR slash
ENCODING 47
SWIDTH 395 0
DWIDTH 12 0
BBX 9 24 1 0
BITMAP
0780
0780
0780
0780
0F00
0F00
0F00
0F00
1E00
1E00
1E00
1E00
3C00
3C00
3C00
3C00
7800
7800
7800
7800
F000
F000
F000
F000
ENDCHAR
STARTCHAR zero
ENCODING 48
SWIDTH 536 0
DWIDTH 16 0
BBX 12 24 2 0
BITMAP
1F80
3FC0
7FE0
F9E0
F9F0
F9F0
F9F0
F9F0
F9F0
F9F0
F9F0
F9F0
F9F0
F9F0
F9F0
F9F0
F9F0
F9F0
F9F0
F9F0
F9F0
7FE0
3FC0
1F80
ENDCHAR
STARTCHAR one
ENCODING 49
SWIDTH 380 0
DWIDTH 11 0
BBX 9 24 0 0
BITMAP
0180
0380
0F80
3F80
FF80
FF80
FF80
1F80
0F80
0F80
0F80
0F80
0F80
0F80
0F80
0F80
0F80
0F80
0F80
0F80
0F80
0F80
0F80
0F80
ENDCHAR
STARTCHAR two
ENCODING 50
SWIDTH 501 0
DWIDTH 15 0
BBX 11 24 2 0
BITMAP
1F00
7F80
7FC0
F3C0
F3E0
F3E0
F3E0
F3E0
07E0
07E0
07C0
0FC0
0FC0
1F80
1F80
1F00
3F00
3E00
7E00
7C00
FC00
FFC0
FFC0
FFC0
ENDCHAR
STARTCHAR three
ENCODING 51
SWIDTH 530 0
DWIDTH 16 0
BBX 12 24 2 0
BITMAP
1F80
7FC0
FFE0
F9F0
F9F0
F9F0
F9F0
F9F0
01F0
01F0
0FE0
0FC0
0FE0
03F0
01F0
F9F0
F9F0
F9F0
F9F0
F9F0
F9F0
7FE0
7FE0
1F80
ENDCHAR
STARTCHAR four
ENCODING 52
SWIDTH 499 0
DWIDTH 15 0
BBX 15 24 0 0
BITMAP
03F8
07F8
07F8
0FF8
0FF8
0FF8
1EF8
1EF8
3EF8
3CF8
3CF8
7CF8
78F8
78F8
F8F8
FFFE
FFFE
FFFE
FFFE
FFFE
00F8
00F8
00F8
00F8
ENDCHAR
STARTCHAR five
ENCODING 53
SWIDTH 536 0
DWIDTH 16 0
BBX 12 24 2 0
BITMAP
FFF0
FFF0
FFF0
F800
F800
F800
FBC0
FFE0
FFE0
F9F0
F9F0
01F0
01F0
01F0
F9F0
F9F0
F9F0
F9F0
F9F0
F9F0
79F0
7FE0
3FC0
1F80
ENDCHAR
STARTCHAR six
ENCODING 54
SWIDTH 541 0
DWIDTH 16 0
BBX 12 24 2 0
BITMAP
1F80
3FE0
7FE0
F9F0
F9F0
F9F0
F800
F800
FBC0
FFE0
FFF0
F9F0
F9F0
F9F0
F9F0
F9F0
F9F0
F9F0
F9F0
F9F0
F9F0
7FE0
3FC0
1F80
ENDCHAR
STARTCHAR seven
ENCODING 55
SWIDTH 391 0
DWIDTH 12 0
BBX 12 24 0 0
BITMAP
FFF0
FFF0
FFF0
01F0
01F0
01F0
01E0
03E0
03E0
03E0
03C0
07C0
07C0
07C0
0F80
0F80
0F80
0F80
1F00
1F00
1F00
1F00
3E00
3E00
ENDCHAR
STARTCHAR eight
ENCODING 56
SWIDTH 534 0
DWIDTH 16 0
BBX 12 24 2 0
BITMAP
1F80
3FC0
7FE0
F9F0
F9F0
F9F0
F9F0
F9F0
F9F0
F9F0
7FE0
3FC0
7FE0
F9F0
F9F0
F9F0
F9F0
F9F0
F9F0
F9F0
F9F0
7FE0
7FE0
1F80
ENDCHAR
STARTCHAR nine
ENCODING 57
SWIDTH 541 0
DWIDTH 16 0
BBX 12 24 2 0
BITMAP
1F80
3FC0
7FE0
F9F0
F9F0
F9F0
F9F0
F9F0
F9F0
F9F0
F9F0
F9F0
F9F0
FFF0
7FF0
3DF0
01F0
01F0
F9F0
F9F0
F9F0
7FE0
7FC0
1F80
ENDCHAR
STARTCHAR colon
ENCODING 58
SWIDTH 202 0
DWIDTH 6 0
BBX 4 15 1 0
BITMAP
F0
F0
F0
F0
F0
00
00
00
00
00
F0
F0
F0
F0
F0
ENDCHAR
STARTCHAR semicolon
ENCODING 59
SWIDTH 202 0
DWIDTH 6 0
BBX 4 18 1 -3
BITMAP
F0
F0
F0
F0
F0
00
00
00
00
00
F0
F0
F0
F0
F0
60
E0
80
ENDCHAR
STARTCHAR less
ENCODING 60
SWIDTH 533 0
DWIDTH 16 0
BBX 14 15 1 5
BITMAP
0004
003C
00FC
03FC
1FF8
7FE0
FF80
FC00
FF80
7FE0
1FF8
03FC
00FC
003C
0004
ENDCHAR
STARTCHAR equal
ENCODING 61
SWIDTH 533 0
DWIDTH 16 0
BBX 14 10 1 7
BITMAP
FFFC
FFFC
FFFC
FFFC
0000
0000
FFFC
FFFC
FFFC
FFFC
ENDCHAR
STARTCHAR greater
ENCODING 62
SWIDTH 533 0
DWIDTH 16 0
BBX 14 15 1 5
BITMAP
8000
F000
FC00
FF00
7FE0
1FF8
07FC
00FC
07FC
1FF8
7FE0
FF00
FC00
F000
8000
ENDCHAR
STARTCHAR question
ENCODING 63
SWIDTH 524 0
DWIDTH 16 0
BBX 14 24 1 0
BITMAP
0FC0
3FF0
7FF8
7FF8
F87C
F87C
F87C
F87C
007C
007C
007C
007C
F87C
FFFC
FFF8
FFF8
FBE0
F800
0000
F800
F800
F800
F800
F800
ENDCHAR
STARTCHAR at
ENCODING 64
SWIDTH 774 0
DWIDTH 23 0
BBX 21 25 1 -1
BITMAP
00FE00
07FF80
0F03C0
1C00E0
380060
30E730
71FF30
639F18
671E18
C70E18
CE0E18
CE0E18
CE1E18
CE1E18
CE1C30
CE1C30
CE3C60
673CC0
67FF80
33CF00
380078
1C00F0
0F03E0
07FF80
00FC00
ENDCHAR
STARTCHAR A
ENCODING 65
SWIDTH 507 0
DWIDTH 15 0
BBX 15 24 0 0
BITMAP
1FF0
1FF0
1FF0
1FF0
1EF0
3EF8
3EF8
3EF8
3EF8
3EF8
3EF8
7C7C
7C7C
7C7C
7C7C
7C7C
7FFC
7FFC
FFFE
FFFE
F83E
F83E
F83E
F83E
ENDCHAR
STARTCHAR B
ENCODING 66
SWIDTH 552 0
DWIDTH 17 0
BBX 13 24 2 0
BITMAP
FFC0
FFF0
FFF0
FFF8
F8F8
F8F8
F8F8
F8F8
F8F8
FFF0
FFC0
FFF0
FFF8
F8F8
F8F8
F8F8
F8F8
F8F8
F8F8
F8F8
FFF8
FFF8
FFF0
FFE0
ENDCHAR
STARTCHAR C
ENCODING 67
SWIDTH 553 0
DWIDTH 17 0
BBX 13 24 2 0
BITMAP
0F80
3FE0
7FF0
7FF8
F8F8
F8F8
F8F8
F8F8
F8F8
F8F8
F800
F800
F800
F800
F8F8
F8F8
F8F8
F8F8
F8F8
F8F8
7FF0
7FF0
3FE0
1F80
ENDCHAR
STARTCHAR D
ENCODING 68
SWIDTH 552 0
DWIDTH 17 0
BBX 13 24 2 0
BITMAP
FFC0
FFF0
FFF0
FFF8
F8F8
F8F8
F8F8
F8F8
F8F8
F8F8
F8F8
F8F8
F8F8
F8F8
F8F8
F8F8
F8F8
F8F8
F8F8
F9F8
FFF8
FFF8
FFF0
FFE0
ENDCHAR
STARTCHAR E
ENCODING 69
SWIDTH 415 0
DWIDTH 12 0
BBX 9 24 2 0
BITMAP
FF00
FF00
FF00
FF00
FF00
F800
F800
F800
F800
FF00
FF00
FF00
FF00
FF00
F800
F800
F800
F800
F800
FF80
FF80
FF80
FF80
FF80
ENDCHAR
STARTCHAR F
ENCODING 70
SWIDTH 397 0
DWIDTH 12 0
BBX 10 24 2 0
BITMAP
FFC0
FFC0
FFC0
FFC0
FFC0
F800
F800
F800
F800
FFC0
FFC0
FFC0
FFC0
FFC0
F800
F800
F800
F800
F800
F800
F800
F800
F800
F800
ENDCHAR
STARTCHAR G
ENCODING 71
SWIDTH 551 0
DWIDTH 17 0
BBX 13 24 2 0
BITMAP
0F80
3FE0
7FF0
FFF0
F8F8
F8F8
F8F8
F8F8
F8F8
F800
F800
F9F8
F9F8
F9F8
F9F8
F8F8
F8F8
F8F8
F8F8
F8F8
7FF8
7FF8
3FB8
1F38
ENDCHAR
STARTCHAR H
ENCODING 72
SWIDTH 555 0
DWIDTH 17 0
BBX 13 24 2 0
BITMAP
F8F8
F8F8
F8F8
F8F8
F8F8
F8F8
F8F8
F8F8
F8F8
FFF8
FFF8
FFF8
FFF8
FFF8
F8F8
F8F8
F8F8
F8F8
F8F8
F8F8
F8F8
F8F8
F8F8
F8F8
ENDCHAR
STARTCHAR I
ENCODING 73
SWIDTH 288 0
DWIDTH 9 0
BBX 5 24 2 0
BITMAP
F8
F8
F8
F8
F8
F8
F8
F8
F8
F8
F8
F8
F8
F8
F8
F8
F8
F8
F8
F8
F8
F8
F8
F8
ENDCHAR
STARTCHAR J
ENCODING 74
SWIDTH 331 0
DWIDTH 10 0
BBX 8 24 0 0
BITMAP
1F
1F
1F
1F
1F
1F
1F
1F
1F
1F
1F
1F
1F
1F
1F
1F
1F
1F
1F
1F
FF
FF
FE
FC
ENDCHAR
STARTCHAR K
ENCODING 75
SWIDTH 536 0
DWIDTH 16 0
BBX 14 24 2 0
BITMAP
F87C
F87C
F8F8
F8F8
F9F0
F9F0
FBE0
FBE0
FFC0
FFC0
FF80
FF80
FF80
FFC0
FFC0
FBE0
FBE0
F9F0
F9F0
F8F8
F8F8
F8F8
F87C
F87C
ENDCHAR
STARTCHAR L
ENCODING 76
SWIDTH 380 0
DWIDTH 11 0
BBX 9 24 2 0
BITMAP
F800
F800
F800
F800
F800
F800
F800
F800
F800
F800
F800
F800
F800
F800
F800
F800
F800
F800
F800
FF80
FF80
FF80
FF80
FF80
ENDCHAR
STARTCHAR M
ENCODING 77
SWIDTH 716 0
DWIDTH 22 0
BBX 18 24 2 0
BITMAP
FF1FC0
FF1FC0
FF1FC0
FF1FC0
FF1FC0
FFBFC0
FFBFC0
FFBFC0
FBB7C0
FBB7C0
FBB7C0
FBF7C0
FBF7C0
FBF7C0
FBF7C0
FBF7C0
FBF7C0
FBF7C0
FBF7C0
F9E7C0
F9E7C0
F9E7C0
F9E7C0
F9E7C0
ENDCHAR
STARTCHAR N
ENCODING 78
SWIDTH 541 0
DWIDTH 16 0
BBX 12 24 2 0
BITMAP
F1F0
F1F0
F9F0
F9F0
F9F0
FDF0
FDF0
FDF0
FDF0
FFF0
FFF0
FFF0
FFF0
FFF0
FFF0
FBF0
FBF0
FBF0
FBF0
F9F0
F9F0
F9F0
F8F0
F8F0
ENDCHAR
STARTCHAR O
ENCODING 79
SWIDTH 546 0
DWIDTH 16 0
BBX 12 24 2 0
BITMAP
1F80
3FC0
7FE0
FFE0
F9F0
F9F0
F9F0
F9F0
F9F0
F9F0
F9F0
F9F0
F9F0
F9F0
F9F0
F9F0
F9F0
F9F0
F9F0
F9F0
7FE0
7FE0
3FC0
1F80
ENDCHAR
STARTCHAR P
ENCODING 80
SWIDTH 501 0
DWIDTH 15 0
BBX 12 24 2 0
BITMAP
FF80
FFE0
FFF0
FFF0
F9F0
F9F0
F9F0
F9F0
F9F0
F9F0
FFF0
FFF0
FFE0
FFC0
F800
F800
F800
F800
F800
F800
F800
F800
F800
F800
ENDCHAR
STARTCHAR Q
ENCODING 81
SWIDTH 546 0
DWIDTH 16 0
BBX 12 27 2 -3
BITMAP
1F00
3FC0
7FE0
7FE0
F9F0
F9F0
F9F0
F9F0
F9F0
F9F0
F9F0
F9F0
F9F0
F9F0
F9F0
F9F0
F9F0
F9F0
F9F0
F9F0
7FE0
7FC0
3F00
1F00
03F0
03F0
01F0
ENDCHAR
STARTCHAR R
ENCODING 82
SWIDTH 538 0
DWIDTH 16 0
BBX 12 24 2 0
BITMAP
FF80
FFE0
FFE0
FFF0
F9F0
F9F0
F9F0
F9F0
F9F0
FFF0
FFE0
FFC0
FFE0
F9F0
F9F0
F9F0
F9F0
F9F0
F9F0
F9F0
F9F0
F9F0
F9F0
F9F0
ENDCHAR
STARTCHAR S
ENCODING 83
SWIDTH 517 0
DWIDTH 16 0
BBX 14 24 1 0
BITMAP
1FC0
3FF0
7FF0
FFF8
F8F8
F8F8
F8F8
F800
FE00
7F00
7FC0
3FF0
0FF8
03F8
01FC
F8FC
F87C
F87C
F87C
F8FC
FFFC
7FF8
3FF0
0FC0
ENDCHAR
STARTCHAR T
ENCODING 84
SWIDTH 460 0
DWIDTH 14 0
BBX 14 24 0 0
BITMAP
FFFC
FFFC
FFFC
FFFC
FFFC
07C0
07C0
07C0
07C0
07C0
07C0
07C0
07C0
07C0
07C0
07C0
07C0
07C0
07C0
07C0
07C0
07C0
07C0
07C0
ENDCHAR
STARTCHAR U
ENCODING 85
SWIDTH 546 0
DWIDTH 16 0
BBX 12 24 2 0
BITMAP
F9F0
F9F0
F9F0
F9F0
F9F0
F9F0
F9F0
F9F0
F9F0
F9F0
F9F0
F9F0
F9F0
F9F0
F9F0
F9F0
F9F0
F9F0
F9F0
F9F0
FFF0
7FE0
3FC0
1F80
ENDCHAR
STARTCHAR V
ENCODING 86
SWIDTH 523 0
DWIDTH 15 0
BBX 15 24 0 0
BITMAP
F83E
F83E
F83E
F87E
7C7C
7C7C
7C7C
7C7C
7C7C
7C7C
7CFC
3EF8
3EF8
3EF8
3EF8
3EF8
3EF8
3EF8
1FF8
1FF0
1FF0
1FF0
1FF0
1FF0
ENDCHAR
STARTCHAR W
ENCODING 87
SWIDTH 814 0
DWIDTH 23 0
BBX 23 24 0 0
BITMAP
F87C3E
F87C3E
F87C3E
F8FC3E
78FE3C
78FE3C
7CFE7C
7CFE7C
7CFE7C
7CFE7C
7DFE7C
7DEF7C
3DEF78
3DEF78
3DEF78
3DEF78
3DEF78
3FC778
3FC7F8
3FC7F8
1FC7F8
1FC7F0
1FC7F0
1FC7F0
ENDCHAR
STARTCHAR X
ENCODING 88
SWIDTH 482 0
DWIDTH 13 0
BBX 13 24 0 0
BITMAP
F078
F078
F8F8
F8F8
78F0
7DF0
7DF0
3DE0
3FE0
3FE0
3FE0
3FE0
3FE0
3FE0
3DE0
7DF0
7DF0
79F0
78F0
F8F0
F8F8
F8F8
F078
F078
ENDCHAR
STARTCHAR Y
ENCODING 89
SWIDTH 473 0
DWIDTH 14 0
BBX 13 24 0 0
BITMAP
F8F8
F8F8
78F0
78F0
78F0
78F0
3DE0
3DE0
3DE0
3DE0
1FC0
1FC0
1FC0
0F80
0F80
0F80
0F80
0F80
0F80
0F80
0F80
0F80
0F80
0F80
ENDCHAR
STARTCHAR Z
ENCODING 90
SWIDTH 396 0
DWIDTH 12 0
BBX 12 24 0 0
BITMAP
7FF0
7FF0
7FF0
7FF0
7FF0
01F0
03E0
03E0
07C0
07C0
0FC0
0F80
1F80
1F00
1F00
3E00
3E00
7C00
7C00
FFF0
FFF0
FFF0
FFF0
FFF0
ENDCHAR
STARTCHAR bracketleft
ENCODING 91
SWIDTH 282 0
DWIDTH 8 0
BBX 6 24 1 0
BITMAP
FC
FC
FC
FC
F8
F8
F8
F8
F8
F8
F8
F8
F8
F8
F8
F8
F8
F8
F8
F8
FC
FC
FC
FC
ENDCHAR
STARTCHAR backslash
ENCODING 92
SWIDTH 395 0
DWIDTH 12 0
BBX 11 24 1 0
BITMAP
F000
F000
7800
7800
7800
7C00
3C00
3C00
3C00
1E00
1E00
1E00
0F00
0F00
0F00
0F80
0780
0780
0780
03C0
03C0
03C0
03E0
01E0
ENDCHAR
STARTCHAR bracketright
ENCODING 93
SWIDTH 282 0
DWIDTH 8 0
BBX 6 24 1 0
BITMAP
FC
FC
FC
FC
7C
7C
7C
7C
7C
7C
7C
7C
7C
7C
7C
7C
7C
7C
7C
7C
FC
FC
FC
FC
ENDCHAR
STARTCHAR asciicircum
ENCODING 94
SWIDTH 483 0
DWIDTH 15 0
BBX 13 12 1 12
BITMAP
0700
0F80
0F80
0F80
1FC0
1FC0
3FE0
3DE0
7DF0
78F0
78F0
F078
ENDCHAR
STARTCHAR underscore
ENCODING 95
SWIDTH 552 0
DWIDTH 17 0
BBX 17 2 0 -4
BITMAP
FFFF80
FFFF80
ENDCHAR
STARTCHAR grave
ENCODING 96
SWIDTH 333 0
DWIDTH 10 0
BBX 7 4 1 22
BITMAP
F0
78
3C
1E
ENDCHAR
STARTCHAR a
ENCODING 97
SWIDTH 503 0
DWIDTH 15 0
BBX 12 19 1 0
BITMAP
1F80
3FE0
7FE0
F1F0
F1F0
F1F0
F1F0
F1F0
07F0
1FF0
7FF0
F9F0
F1F0
F1F0
F1F0
F1F0
FFF0
7FF0
3DF0
ENDCHAR
STARTCHAR b
ENCODING 98
SWIDTH 519 0
DWIDTH 16 0
BBX 13 24 1 0
BITMAP
F800
F800
F800
F800
F800
F9E0
FFF0
FFF8
F8F8
F8F8
F8F8
F8F8
F8F8
F8F8
F8F8
F8F8
F8F8
F8F8
F8F8
F8F8
F8F8
FFF8
FBF0
F9E0
ENDCHAR
STARTCHAR c
ENCODING 99
SWIDTH 494 0
DWIDTH 15 0
BBX 12 19 1 0
BITMAP
1F80
3FC0
7FE0
F8F0
F8F0
F8F0
F8F0
F800
F800
F800
F800
F8F0
F8F0
F8F0
F8F0
F8F0
7FE0
3FC0
1F80
ENDCHAR
STARTCHAR d
ENCODING 100
SWIDTH 519 0
DWIDTH 16 0
BBX 13 24 1 0
BITMAP
00F8
00F8
00F8
00F8
00F8
3CF8
7FF8
FFF8
F8F8
F8F8
F8F8
F8F8
F8F8
F8F8
F8F8
F8F8
F8F8
F8F8
F8F8
F8F8
F8F8
FFF8
7FF8
3CF8
ENDCHAR
STARTCHAR e
ENCODING 101
SWIDTH 511 0
DWIDTH 15 0
BBX 12 19 1 0
BITMAP
1F80
3FC0
7FE0
F9E0
F9F0
F9F0
F9F0
FFF0
FFF0
FFF0
F800
F9F0
F9F0
F9F0
F9F0
F9F0
7FE0
3FC0
1F80
ENDCHAR
STARTCHAR f
ENCODING 102
SWIDTH 289 0
DWIDTH 9 0
BBX 8 24 0 0
BITMAP
1F
7F
7F
78
78
FF
FF
FF
7C
7C
7C
7C
7C
7C
7C
7C
7C
7C
7C
7C
7C
7C
7C
7C
ENDCHAR
STARTCHAR g
ENCODING 103
SWIDTH 518 0
DWIDTH 16 0
BBX 13 22 1 -3
BITMAP
3CF8
7FF8
FFF8
F8F8
F8F8
F8F8
F8F8
F8F8
F8F8
F8F8
F8F8
F8F8
F8F8
F8F8
FFF8
7FF8
3EF8
00F8
F8F8
FFF0
7FE0
3FC0
ENDCHAR
STARTCHAR h
ENCODING 104
SWIDTH 523 0
DWIDTH 16 0
BBX 13 24 1 0
BITMAP
F800
F800
F800
F800
F800
FBE0
FFF0
FFF8
F8F8
F8F8
F8F8
F8F8
F8F8
F8F8
F8F8
F8F8
F8F8
F8F8
F8F8
F8F8
F8F8
F8F8
F8F8
F8F8
ENDCHAR
STARTCHAR i
ENCODING 105
SWIDTH 273 0
DWIDTH 8 0
BBX 5 24 1 0
BITMAP
F8
F8
F8
00
00
F8
F8
F8
F8
F8
F8
F8
F8
F8
F8
F8
F8
F8
F8
F8
F8
F8
F8
F8
ENDCHAR
STARTCHAR j
ENCODING 106
SWIDTH 279 0
DWIDTH 8 0
BBX 6 27 0 -3
BITMAP
7C
7C
7C
00
00
7C
7C
7C
7C
7C
7C
7C
7C
7C
7C
7C
7C
7C
7C
7C
7C
7C
7C
7C
FC
F8
F0
ENDCHAR
STARTCHAR k
ENCODING 107
SWIDTH 478 0
DWIDTH 14 0
BBX 12 24 1 0
BITMAP
F800
F800
F800
F800
F800
F9F0
F9E0
F9E0
FBE0
FBC0
FFC0
FFC0
FF80
FFC0
FFC0
FFC0
FBC0
FBC0
FBE0
FBE0
F9E0
F9E0
F9F0
F9F0
ENDCHAR
STARTCHAR l
ENCODING 108
SWIDTH 273 0
DWIDTH 8 0
BBX 5 24 1 0
BITMAP
F8
F8
F8
F8
F8
F8
F8
F8
F8
F8
F8
F8
F8
F8
F8
F8
F8
F8
F8
F8
F8
F8
F8
F8
ENDCHAR
STARTCHAR m
ENCODING 109
SWIDTH 770 0
DWIDTH 23 0
BBX 20 19 1 0
BITMAP
F9C3C0
FFFFE0
FFFFF0
F8F1F0
F8F1F0
F8F1F0
F8F1F0
F8F1F0
F8F1F0
F8F1F0
F8F1F0
F8F1F0
F8F1F0
F8F1F0
F8F1F0
F8F1F0
F8F1F0
F8F1F0
F8F1F0
ENDCHAR
STARTCHAR n
ENCODING 110
SWIDTH 522 0
DWIDTH 16 0
BBX 13 19 1 0
BITMAP
F9E0
FBF0
FFF8
F8F8
F8F8
F8F8
F8F8
F8F8
F8F8
F8F8
F8F8
F8F8
F8F8
F8F8
F8F8
F8F8
F8F8
F8F8
F8F8
ENDCHAR
STARTCHAR o
ENCODING 111
SWIDTH 511 0
DWIDTH 15 0
BBX 12 19 1 0
BITMAP
1F80
3FC0
7FE0
F9F0
F9F0
F9F0
F9F0
F9F0
F9F0
F9F0
F9F0
F9F0
F9F0
F9F0
F9F0
F9F0
7FE0
7FC0
1F80
ENDCHAR
STARTCHAR p
ENCODING 112
SWIDTH 519 0
DWIDTH 16 0
BBX 13 22 1 -3
BITMAP
F9E0
FFF0
FFF8
F8F8
F8F8
F8F8
F8F8
F8F8
F8F8
F8F8
F8F8
F8F8
F8F8
F8F8
F8F8
F8F8
FFF8
FFF0
F9E0
F800
F800
F800
ENDCHAR
STARTCHAR q
ENCODING 113
SWIDTH 518 0
DWIDTH 16 0
BBX 13 22 1 -3
BITMAP
3CF8
7FF8
FFF8
F8F8
F8F8
F8F8
F8F8
F8F8
F8F8
F8F8
F8F8
F8F8
F8F8
F8F8
F8F8
F8F8
FFF8
7FF8
3EF8
00F8
00F8
00F8
ENDCHAR
STARTCHAR r
ENCODING 114
SWIDTH 357 0
DWIDTH 11 0
BBX 9 19 1 0
BITMAP
F980
FB80
FF80
FF80
FF80
FC00
F800
F800
F800
F800
F800
F800
F800
F800
F800
F800
F800
F800
F800
ENDCHAR
STARTCHAR s
ENCODING 115
SWIDTH 470 0
DWIDTH 14 0
BBX 11 19 1 0
BITMAP
1F00
7FC0
FFC0
F8E0
F8E0
F8E0
FCE0
FE00
7F80
7FC0
1FE0
0FE0
E7E0
E3E0
E3E0
E3E0
7FE0
7FC0
1F00
ENDCHAR
STARTCHAR t
ENCODING 116
SWIDTH 304 0
DWIDTH 9 0
BBX 8 22 0 0
BITMAP
7C
7C
7C
FF
FF
FF
7C
7C
7C
7C
7C
7C
7C
7C
7C
7C
7C
7C
7C
7F
7F
3F
ENDCHAR
STARTCHAR u
ENCODING 117
SWIDTH 522 0
DWIDTH 16 0
BBX 13 19 1 0
BITMAP
F8F8
F8F8
F8F8
F8F8
F8F8
F8F8
F8F8
F8F8
F8F8
F8F8
F8F8
F8F8
F8F8
F8F8
F8F8
F8F8
FFF8
7FF8
3EF8
ENDCHAR
STARTCHAR v
ENCODING 118
SWIDTH 437 0
DWIDTH 12 0
BBX 13 19 -1 0
BITMAP
F8F8
F8F8
F8F8
78F0
78F0
78F0
7DF0
7DF0
7DF0
7DF0
3DE0
3DE0
3DE0
3DE0
3DE0
3FE0
1FC0
1FC0
1FC0
ENDCHAR
STARTCHAR w
ENCODING 119
SWIDTH 669 0
DWIDTH 20 0
BBX 21 19 -1 0
BITMAP
F0F878
F8F8F8
F8F8F8
78F8F0
78F8F0
79FCF0
79FCF0
7DFDF0
7DFDF0
3DDDE0
3DDDE0
3DDDE0
3FDFE0
3FDFE0
3FDFE0
1F8FC0
1F8FC0
1F8FC0
1F8FC0
ENDCHAR
STARTCHAR x
ENCODING 120
SWIDTH 433 0
DWIDTH 12 0
BBX 13 19 -1 0
BITMAP
F8F8
F8F8
78F0
7DF0
7DF0
3DE0
3DE0
3DE0
1FC0
1FC0
1FC0
3FE0
3DE0
3DE0
7DF0
7DF0
78F0
F8F8
F8F8
ENDCHAR
STARTCHAR y
ENCODING 121
SWIDTH 448 0
DWIDTH 13 0
BBX 14 22 -1 -3
BITMAP
FCFC
FCFC
7CF8
7CF8
7CF8
7CF8
3EF8
3EF8
3EF8
1EF8
1EF0
1EF0
1EF0
0EF0
0FF0
0FF0
0FF0
07F0
07E0
7FE0
7FC0
7F80
ENDCHAR
STARTCHAR z
ENCODING 122
SWIDTH 351 0
DWIDTH 11 0
BBX 10 19 0 0
BITMAP
7FC0
7FC0
7FC0
07C0
0FC0
0F80
0F80
1F00
1F00
3F00
3E00
3E00
7E00
7C00
FC00
F800
FFC0
FFC0
FFC0
ENDCHAR
STARTCHAR braceleft
ENCODING 123
SWIDTH 369 0
DWIDTH 11 0
BBX 10 28 1 -4
BITMAP
03C0
0FC0
1FC0
1FC0
1E00
1E00
1E00
1E00
1E00
1E00
1E00
3C00
FC00
F800
F800
FC00
3C00
1E00
1E00
1E00
1E00
1E00
1E00
1E00
1FC0
1FC0
0FC0
07C0
ENDCHAR
STARTCHAR bar
ENCODING 124
SWIDTH 270 0
DWIDTH 8 0
BBX 3 28 2 -4
BITMAP
E0
E0
E0
E0
E0
E0
E0
E0
E0
E0
E0
E0
E0
E0
E0
E0
E0
E0
E0
E0
E0
E0
E0
E0
E0
E0
E0
E0
ENDCHAR
STARTCHAR braceright
ENCODING 125
SWIDTH 369 0
DWIDTH 11 0
BBX 10 28 0 -4
BITMAP
F000
FC00
FE00
FE00
1E00
1E00
1E00
1E00
1E00
1E00
1E00
0F00
0FC0
07C0
07C0
0FC0
0F00
1E00
1E00
1E00
1E00
1E00
1E00
1E00
FE00
FE00
FC00
F000
ENDCHAR
STARTCHAR asciitilde
ENCODING 126
SWIDTH 524 0
DWIDTH 16 0
BBX 14 6 1 10
BITMAP
3C04
7F1C
FFFC
FFFC
E3F8
80F0
ENDCHAR
ENDFONT
